<svg xmlns="http://www.w3.org/2000/svg" xmlns:xlink="http://www.w3.org/1999/xlink" preserveAspectRatio="xMidYMid meet" version="1.0" viewBox="12.7 14.9 73.7 69.7" zoomAndPan="magnify" style="fill: rgb(174, 216, 165);" role="img" aria-label="Shopping Cart Icon"><g><g id="__id26_syocwbrx29"><path d="M86.3334961,69.152832H24.1665039V23.4375c-0.3857422-1.3051758-1.6689453-4.2924805-3.7705078-4.9082031 c-1.5390625-0.4501953-3.4604492,0.3696289-5.7158203,2.4379883l-2.0273438-2.2119141 c3.0888672-2.8320313,5.984375-3.8754883,8.5991211-3.1015625c4.2768555,1.2636719,5.8032227,6.9589844,5.8662109,7.2006836 l0.0483398,0.3774414V66.152832h59.1669922V69.152832z" style="fill: inherit;"></path></g><g id="__id27_syocwbrx29"><path d="M25.6666679 29.0488529L83.6666641 29.0488529 76.3333359 55.3196869 25.6666679 55.3196869" style="fill: inherit;"></path><path d="M77.472168 56.8198242L25.6665039 56.8198242 25.6665039 53.8198242 75.1948242 53.8198242 81.6904297 30.5488281 25.6665039 30.5488281 25.6665039 27.5488281 85.6425781 27.5488281z" style="fill: inherit;"></path></g><g id="__id28_syocwbrx29"><circle cx="40.833" cy="78.007" r="5.083" style="fill: inherit;"></circle><path d="M40.8334961,84.590332c-3.6303711,0-6.5834961-2.953125-6.5834961-6.5830078 c0-3.6303711,2.953125-6.5834961,6.5834961-6.5834961c3.6298828,0,6.5830078,2.953125,6.5830078,6.5834961 C47.4165039,81.637207,44.4633789,84.590332,40.8334961,84.590332z M40.8334961,74.4238281 c-1.9760742,0-3.5834961,1.6074219-3.5834961,3.5834961c0,1.9755859,1.6074219,3.5830078,3.5834961,3.5830078 c1.9755859,0,3.5830078-1.6074219,3.5830078-3.5830078C44.4165039,76.03125,42.809082,74.4238281,40.8334961,74.4238281z" style="fill: inherit;"></path></g><g id="__id29_syocwbrx29"><circle cx="71.833" cy="78.007" r="5.083" style="fill: inherit;"></circle><path d="M71.8334961,84.590332c-3.6303711,0-6.5834961-2.953125-6.5834961-6.5830078 c0-3.6303711,2.953125-6.5834961,6.5834961-6.5834961c3.6298828,0,6.5830078,2.953125,6.5830078,6.5834961 C78.4165039,81.637207,75.4633789,84.590332,71.8334961,84.590332z M71.8334961,74.4238281 c-1.9760742,0-3.5834961,1.6074219-3.5834961,3.5834961c0,1.9755859,1.6074219,3.5830078,3.5834961,3.5830078 c1.9755859,0,3.5830078-1.6074219,3.5830078-3.5830078C75.4165039,76.03125,73.809082,74.4238281,71.8334961,74.4238281z" style="fill: inherit;"></path></g></g></svg>