<svg xmlns="http://www.w3.org/2000/svg" xmlns:xlink="http://www.w3.org/1999/xlink" preserveAspectRatio="xMidYMid meet" version="1.0" viewBox="0.0 0.0 86.0 86.0" zoomAndPan="magnify" style="fill: rgb(174, 216, 165);" role="img" aria-label="Telephone Call Icon"><g id="__id114_sc3qvmgdo"><circle cx="43" cy="43" r="43" style="fill: inherit;"></circle></g><g id="__id115_sc3qvmgdo"><path d="M40,45.7c-7.1-6.8-6-10-6-10c2.9-2.8,2.5-6.5,2.5-6.5c-1.5-2-3-4-4.5-6c0,0-2-3.3-5.1-1.5 c-8.3,4.9-5.7,13.3-5.7,13.3c0,0.1,2.3,7.2,12.8,17c10.5,9.9,18.1,12.5,18.1,12.5c0,0,8.6,2.8,12.7-5.1c1.5-3-1.9-5.3-1.9-5.3 c-2.1-1.7-4.2-3.3-6.3-4.9c0,0-3.8-0.6-6.4,2.3C50.2,51.6,47,52.5,40,45.7C40,45.7,40,45.7,40,45.7z" style="fill: rgb(255, 255, 255);"></path></g></svg>