<?xml version="1.0" encoding="UTF-8"?><svg xmlns="http://www.w3.org/2000/svg" xmlns:xlink="http://www.w3.org/1999/xlink" clip-rule="evenodd" fill-rule="evenodd" height="198.9" image-rendering="optimizeQuality" preserveAspectRatio="xMidYMid meet" shape-rendering="geometricPrecision" text-rendering="geometricPrecision" version="1.0" viewBox="14.7 -2.5 164.5 198.9" width="164.5" zoomAndPan="magnify"><g><g fill="#E6E7E8" id="change1_1"><path d="M50.9567 18.5671c29.4983,-21.1065 70.5218,-14.3021 91.6283,15.1974 21.1053,29.4994 14.3009,70.523 -15.1974,91.6283 -29.4994,21.1053 -70.523,14.3021 -91.6283,-15.1974 -21.1065,-29.4994 -14.3021,-70.523 15.1974,-91.6283zm6.64139 9.28236c24.3722,-17.4368 58.2654,-11.8158 75.7034,12.5564 17.4379,24.3722 11.8158,58.2666 -12.5564,75.7034 -24.3722,17.4379 -58.2654,11.817 -75.7034,-12.5564 -17.4379,-24.3722 -11.8158,-58.2654 12.5564,-75.7034z" fill="inherit"/><rect fill="inherit" height="297.919" rx="6.961" ry="6.961" transform="matrix(.21432 -.14191 .15477 .23408 106.747 126.657)" width="122.917"/><path d="M42.8885 56.6119c10.4611,-15.1147 30.5991,-31.1743 49.022,-33.0581 -25.8581,-5.25595 -46.9917,17.7934 -49.022,33.0581z" fill="inherit"/></g></g></svg>