<?xml version="1.0" encoding="UTF-8"?><svg xmlns="http://www.w3.org/2000/svg" xmlns:xlink="http://www.w3.org/1999/xlink" height="210.5" preserveAspectRatio="xMidYMid meet" version="1.0" viewBox="2.0 2.4 219.7 210.5" width="219.7" zoomAndPan="magnify"><g id="change1_1"><path d="M201.5,14.6c3.3,0.1,6.7-0.2,9.9,0.9c0.4,0.1,0.5,0.7,0.9,1.1l3.7-1.3c0.3,1.6,0.6,3.3,0.7,5 c0.2,6.3,0.3,12.6,0.4,18.9c0.1,7.4,0.2,14.8,0.4,22.1s0.6,15,0.7,22.5c0.1,3.7-0.2,7.5-0.1,11.2c0,2.6,0.4,5.3,0.5,7.9 c0.2,4.1,0.2,8.2,0.4,12.3c0.3,5.6,0.6,11.2,0.9,16.9c0.2,4.8,0.4,9.6,0.6,14.4c0.3,7.4,0.5,14.7,0.7,22.1 c0.1,6.7,0.1,13.4,0.2,20.1c0.1,5.9,0.2,11.8,0.3,17.6c0,1.5-0.1,2.9-0.1,4.4c-0.1,1.7-0.7,2.1-2.5,1.9c-0.6-0.1-1.3,0.3-2,0.2 c-1,0.1-1.8-0.7-1.9-1.7c0-0.2,0-0.4,0.1-0.6c0.1-1.1-0.3-1.5-1.5-1.6c-4.8-0.1-9.6-0.3-14.4-0.4c-6.4-0.1-12.8-0.2-19.1-0.2 c-5.6,0-11.2,0.3-16.9,0.3c-13.5,0.1-27.1,0.1-40.6,0.1c-6.9,0-13.7-0.1-20.6-0.1c-6.5-0.1-13.1-0.3-19.6-0.2s-13,0.5-19.5,0.6 c-7.1,0.1-14.2-0.1-21.4,0s-14.5,0.2-21.8,0.7c-5.1,0.3-10.2,1.4-15.2,1.9c-0.7,0.1-1.4-0.8-1.7-0.9l0.5-3.5l-1.2,0.5 c-0.3-1.8,0.3-2.6,2.3-2.9c2.3-0.4,2.2-0.5,1.8-2.8c-0.3-2.8-0.5-5.6-0.6-8.5c-0.3-6.3-0.7-12.7-0.9-19C4.7,167,4.6,159.5,4.5,152 c-0.1-5.7-0.3-11.4-0.4-17.1c-0.1-10.8-0.2-21.7-0.3-32.6c0-5.6,0-11.2,0-16.9c0-13.1,0.1-26.2,0.1-39.3c0-7-0.2-14.1-0.2-21.2 c0-6.9,0.1-13.8,0.2-20.6C4,3.7,4.2,3,4.5,2.4l2.8,1.7l0.2-0.9c0.4,0,0.9,0.2,1.1,0.1c1.2-0.8,1.6-0.2,1.7,0.9 c0.1,1.1,0.1,2.2,0.1,3.3C10.3,8.6,10.8,9,11.9,9c7.9,0.1,15.7,0.4,23.6,0.5c9.4,0.2,18.8,0.3,28.1,0.5c7.8,0.2,15.6,0.5,23.4,0.8 c6.6,0.2,13.2,0.3,19.8,0.5c6,0.2,12.1,0.7,18.2,1c9.4,0.5,18.9,0.9,28.3,1.3 M163.1,20.7c-8.7-0.3-17.4-0.9-26.1-1.3 c-8-0.4-16-0.8-23.9-1.1c-6.4-0.3-12.8-0.7-19.2-0.9c-9.1-0.3-18.1-0.4-27.2-0.6l-26.5-0.6c-3.9-0.1-7.7-0.2-11.6-0.3 c-6,0-12,0-18.2,0c0.1,62.6-0.9,125.2,2.6,187.9c3.3-0.3,6.6-0.7,9.8-0.8c5.5-0.2,11-0.3,16.5-0.4c4.5-0.1,8.9-0.1,13.4-0.1 c3.7,0,7.4,0.2,11.1,0.1c4.2-0.1,8.5-0.4,12.8-0.5c5.8-0.1,11.7-0.1,17.5-0.1s11.7,0.2,17.5,0.3c5,0.1,10,0.3,14.9,0.4 c4.4,0.1,8.8,0,13.2-0.1c7.1-0.1,14.2-0.2,21.3-0.3c1.4,0,2.9,0.2,4.2,0.3c0.6-0.2,1.3-0.4,2-0.5c3.7-0.1,7.4-0.1,11.2,0 c11.8,0.1,23.5,0.3,35.3,0.5c1.1,0,1.2-0.4,1.2-1.2c0-2.7,0-5.4,0-8c-0.1-7.1-0.1-14.2-0.2-21.4c-0.1-6.2-0.1-12.5-0.3-18.7 c-0.4-9.8-1-19.5-1.5-29.3c-0.3-6.2-0.4-12.5-0.6-18.7c-0.3-9.3-0.6-18.7-0.9-28c-0.2-8.7-0.4-17.5-0.6-26.2 c-0.2-7.9-0.4-15.8-0.6-23.6c-0.1-2.9-0.3-5.8-0.5-8.6h-0.5c-0.4,2.6-0.4,2.6-3.4,2.6" fill="#815C4E"/></g></svg>